<?xml version="1.0" standalone="no"?>
<!DOCTYPE svg PUBLIC "-//W3C//DTD SVG 20010904//EN"
 "http://www.w3.org/TR/2001/REC-SVG-20010904/DTD/svg10.dtd">
<svg version="1.0" xmlns="http://www.w3.org/2000/svg"
 width="867.000000pt" height="867.000000pt" viewBox="0 0 867.000000 867.000000"
 preserveAspectRatio="xMidYMid meet">
<metadata>
Created by potrace 1.14, written by Peter Selinger 2001-2017
</metadata>
<g transform="translate(0.000000,867.000000) scale(0.100000,-0.100000)"
fill="#000000" stroke="none">
<path d="M4030 8659 c-884 -62 -1711 -388 -2420 -953 -166 -132 -519 -486
-654 -656 -388 -487 -664 -1037 -816 -1625 -345 -1337 -46 -2724 824 -3815
132 -166 486 -519 656 -654 487 -388 1037 -664 1625 -816 1337 -345 2724 -46
3815 824 166 132 519 486 654 656 388 487 664 1037 816 1625 345 1337 46 2724
-824 3815 -132 166 -486 519 -656 654 -151 121 -419 302 -584 397 -722 411
-1593 607 -2436 548z m2104 -3059 c255 -25 479 -100 659 -222 l57 -39 0 -274
0 -275 -153 0 -154 0 -19 198 -19 197 -65 32 c-85 42 -212 71 -357 82 -255 20
-421 -29 -594 -172 -172 -143 -304 -411 -339 -689 -25 -199 -6 -520 40 -685
76 -268 229 -469 434 -568 129 -62 219 -80 396 -79 198 1 326 25 483 93 l47
20 0 320 0 319 -92 6 c-91 5 -356 16 -410 16 l-28 0 0 135 0 135 451 0 451 0
-6 -527 -6 -528 -58 -48 c-64 -54 -262 -155 -362 -185 -133 -40 -256 -55 -460
-56 -214 -1 -290 9 -435 55 -181 58 -323 148 -464 294 -186 193 -300 444 -346
756 -19 137 -20 448 0 586 55 387 225 696 494 899 235 176 494 238 855 204z
m-3624 -149 c0 -137 15 -121 -132 -142 -48 -6 -92 -15 -99 -19 -8 -6 6 -57 50
-181 243 -687 564 -1609 586 -1683 15 -48 29 -86 32 -83 3 3 29 77 58 164 29
87 184 518 345 958 161 440 293 807 294 815 1 10 -14 16 -49 21 -27 4 -90 13
-138 19 l-88 12 3 117 3 116 430 0 430 0 3 -109 c1 -60 -1 -113 -6 -118 -4 -4
-54 -14 -111 -22 -57 -8 -104 -16 -106 -18 -1 -2 -207 -554 -457 -1228 l-455
-1225 -159 -3 -159 -2 -454 1222 c-250 673 -457 1227 -461 1231 -6 7 -175 36
-212 37 -5 0 -8 54 -8 120 l0 120 430 0 430 0 0 -119z"/>
</g>
</svg>
